<?xml version="1.0" standalone="no"?><!DOCTYPE svg PUBLIC "-//W3C//DTD SVG 1.1//EN" "http://www.w3.org/Graphics/SVG/1.1/DTD/svg11.dtd"><svg t="1579091771953" class="icon" viewBox="0 0 1024 1024" version="1.1" xmlns="http://www.w3.org/2000/svg" p-id="1458" xmlns:xlink="http://www.w3.org/1999/xlink" width="200" height="200"><defs><style type="text/css">@font-face { font-family: element-icons; src: url("chrome-extension://moombeodfomdpjnpocobemoiaemednkg/fonts/element-icons.woff") format("woff"), url("chrome-extension://moombeodfomdpjnpocobemoiaemednkg/fonts/element-icons.ttf ") format("truetype"); }
</style></defs><path d="M461.2 913L103 554.7c-25.7-25.7-25.7-67.7 0-93.3l358.2-358.2c25.7-25.7 67.7-25.7 93.3 0l358.2 358.2c25.7 25.7 25.7 67.7 0 93.3L554.6 913c-25.7 25.7-67.7 25.7-93.4 0z" fill="#F84A63" p-id="1459"></path><path d="M507.9 948.3c-21 0-42-8-58-24L91.7 566.1c-32-32-32-84 0-116L449.9 91.8c32-32 84-32 116 0L924.1 450c32 32 32 84 0 116L565.9 924.3c-16 16-37 24-58 24z m0-848.4c-12.8 0-25.6 4.9-35.4 14.6L114.3 472.7c-19.5 19.5-19.5 51.2 0 70.7l358.2 358.2c19.5 19.5 51.2 19.5 70.7 0l358.2-358.2c19.5-19.5 19.5-51.2 0-70.7L543.2 114.5c-9.7-9.8-22.5-14.6-35.3-14.6z" fill="#2D2D2D" p-id="1460"></path><path d="M507.9 794.3c-10.4 0-20.9-4-28.8-11.9L233.6 536.9c-15.9-15.9-15.9-41.8 0-57.7L479 233.8c7.7-7.7 17.9-11.9 28.8-11.9s21.2 4.2 28.8 11.9L782 479.2c7.7 7.7 11.9 17.9 11.9 28.8 0 10.9-4.2 21.2-11.9 28.8L536.7 782.4c-7.9 7.9-18.4 11.9-28.8 11.9z m-6.2-34.6c3.4 3.4 9.1 3.4 12.4 0l245.4-245.4c2.2-2.2 2.5-4.8 2.5-6.2s-0.3-4-2.5-6.2L514.1 256.4c-2.2-2.2-4.8-2.5-6.2-2.5-1.4 0-4 0.3-6.2 2.5L256.2 501.9c-3.4 3.4-3.4 9.1 0 12.4l245.5 245.4z" fill="#FF5F72" p-id="1461"></path><path d="M642.6 580.6h-91c-6.3 0-12-3.7-14.6-9.4-2.6-5.7-1.6-12.4 2.5-17.1L644 433.9c5.8-6.7 15.9-7.4 22.6-1.6 6.7 5.8 7.4 15.9 1.6 22.6l-81.4 93.7h55.9c8.8 0 16 7.2 16 16s-7.2 16-16.1 16zM614 624.9l-24.2-29.2" fill="#FFDA40" p-id="1462"></path><path d="M614 640.9c-4.6 0-9.2-2-12.3-5.8L577.6 606c-5.6-6.8-4.7-16.9 2.1-22.5 6.8-5.6 16.9-4.7 22.5 2.1l24.1 29.1c5.6 6.8 4.7 16.9-2.1 22.5-3 2.5-6.6 3.7-10.2 3.7zM594.4 524.8c-8.8 0-16-7.2-16-16V391.2c0-8.8 7.2-16 16-16s16 7.2 16 16v117.6c0 8.8-7.2 16-16 16z" fill="#FFDA40" p-id="1463"></path><path d="M568.8 501.1c-4.3 0-8.6-1.7-11.8-5.2l-28.1-30.6c-6-6.5-5.5-16.6 1-22.6s16.6-5.5 22.6 1l28.1 30.6c6 6.5 5.5 16.6-1 22.6-3.1 2.8-7 4.2-10.8 4.2zM487.3 640.9H370.2c-8.8 0-16-7.2-16-16s7.2-16 16-16h117.1c8.8 0 16 7.2 16 16s-7.1 16-16 16zM470.7 599.2h-83.9c-10.5 0-19-8.5-19-19v-39.7c0-10.5 8.5-19 19-19h83.9c10.5 0 19 8.5 19 19v39.7c0.1 10.5-8.5 19-19 19z m-70.9-32h58v-13.7h-58v13.7z m70.9-13.7zM472.2 502.2h-86.8c-23 0-41.7-18.7-41.7-41.7v-42.3c0-23 18.7-41.7 41.7-41.7h86.8c23 0 41.7 18.7 41.7 41.7v42.3c0 23-18.7 41.7-41.7 41.7z m-86.8-93.7c-5.3 0-9.7 4.4-9.7 9.7v42.3c0 5.3 4.4 9.7 9.7 9.7h86.8c5.3 0 9.7-4.4 9.7-9.7v-42.3c0-5.3-4.4-9.7-9.7-9.7h-86.8z" fill="#FFDA40" p-id="1464"></path><path d="M482.8 455.3H374.3c-8.8 0-16-7.2-16-16s7.2-16 16-16h108.5c8.8 0 16 7.2 16 16s-7.2 16-16 16z" fill="#FFDA40" p-id="1465"></path><path d="M428.5 494.5c-8.8 0-16-7.2-16-16v-80c0-8.8 7.2-16 16-16s16 7.2 16 16v80c0 8.8-7.1 16-16 16z" fill="#FFDA40" p-id="1466"></path><path d="M353.5 313.8c-4.2 0-8.3-1.6-11.5-4.9-6.2-6.3-6-16.5 0.3-22.6l120.1-116.5c6.3-6.2 16.5-6 22.6 0.3 6.2 6.3 6 16.5-0.3 22.6L364.6 309.3c-3.1 3-7.1 4.5-11.1 4.5z" fill="#FFFFFF" p-id="1467"></path><path d="M312 349.9c-0.5 0-1 0-1.6-0.1s-1-0.1-1.6-0.2c-0.5-0.1-1-0.2-1.5-0.4-0.5-0.1-1-0.3-1.5-0.5s-0.9-0.4-1.4-0.7c-0.5-0.2-0.9-0.5-1.4-0.8-0.4-0.3-0.9-0.6-1.3-0.9-0.4-0.3-0.8-0.7-1.2-1.1s-0.7-0.8-1.1-1.2c-0.3-0.4-0.6-0.8-0.9-1.3-0.3-0.4-0.6-0.9-0.8-1.4-0.3-0.5-0.5-0.9-0.7-1.4-0.2-0.5-0.4-1-0.5-1.5-0.2-0.5-0.3-1-0.4-1.5-0.1-0.5-0.2-1-0.2-1.6 0-0.5-0.1-1-0.1-1.6s0-1 0.1-1.6c0.1-0.5 0.1-1 0.2-1.5s0.2-1 0.4-1.5c0.1-0.5 0.3-1 0.5-1.5s0.4-1 0.7-1.4c0.2-0.5 0.5-0.9 0.8-1.3 0.3-0.4 0.6-0.9 0.9-1.3 0.3-0.4 0.7-0.8 1.1-1.2 0.4-0.4 0.8-0.7 1.2-1.1 0.4-0.3 0.8-0.6 1.3-0.9 0.4-0.3 0.9-0.6 1.4-0.8 0.5-0.2 0.9-0.5 1.4-0.7 0.5-0.2 1-0.4 1.5-0.5 0.5-0.2 1-0.3 1.5-0.4 0.5-0.1 1-0.2 1.6-0.2 1-0.1 2.1-0.1 3.1 0 0.5 0 1 0.1 1.5 0.2s1 0.2 1.5 0.4c0.5 0.1 1 0.3 1.5 0.5s1 0.4 1.4 0.7c0.5 0.3 0.9 0.5 1.3 0.8 0.4 0.3 0.9 0.6 1.3 0.9 0.4 0.3 0.8 0.7 1.2 1.1 0.4 0.4 0.7 0.8 1.1 1.2 0.3 0.4 0.6 0.8 0.9 1.3 0.3 0.4 0.5 0.9 0.8 1.3 0.2 0.5 0.5 0.9 0.7 1.4 0.2 0.5 0.4 1 0.5 1.5 0.1 0.5 0.3 1 0.4 1.5 0.1 0.5 0.2 1 0.2 1.5 0.1 0.5 0.1 1.1 0.1 1.6s0 1-0.1 1.6c0 0.5-0.1 1-0.2 1.6-0.1 0.5-0.2 1-0.4 1.5s-0.3 1-0.5 1.5-0.4 0.9-0.7 1.4c-0.3 0.5-0.5 0.9-0.8 1.4-0.3 0.4-0.6 0.9-0.9 1.3-0.3 0.4-0.7 0.8-1.1 1.2-0.4 0.4-0.8 0.7-1.2 1.1-0.4 0.3-0.8 0.6-1.3 0.9-0.4 0.3-0.9 0.6-1.3 0.8-0.5 0.3-0.9 0.5-1.4 0.7-0.5 0.2-1 0.4-1.5 0.5-0.5 0.2-1 0.3-1.5 0.4-0.5 0.1-1 0.2-1.5 0.2-0.4 0-0.9 0.1-1.5 0.1z" fill="#FFFFFF" p-id="1468"></path><path d="M507.9 948.3c-21 0-42-8-58-24L91.7 566.1c-32-32-32-84 0-116L449.9 91.8c32-32 84-32 116 0L924.1 450c32 32 32 84 0 116L565.9 924.3c-16 16-37 24-58 24z m0-848.4c-12.8 0-25.6 4.9-35.4 14.6L114.3 472.7c-19.5 19.5-19.5 51.2 0 70.7l358.2 358.2c19.5 19.5 51.2 19.5 70.7 0l358.2-358.2c19.5-19.5 19.5-51.2 0-70.7L543.2 114.5c-9.7-9.8-22.5-14.6-35.3-14.6z" fill="#2D2D2D" p-id="1469"></path></svg>